<?xml version="1.0" encoding="utf-8"?>
<!-- Generator: Adobe Illustrator 27.2.0, SVG Export Plug-In . SVG Version: 6.00 Build 0)  -->
<svg version="1.1" id="b27fb22e-ae99-4042-8e16-bc4aa3aa34ce"
	 xmlns="http://www.w3.org/2000/svg" xmlns:xlink="http://www.w3.org/1999/xlink" x="0px" y="0px" viewBox="0 0 1920 1080"
	 style="enable-background:new 0 0 1920 1080;" xml:space="preserve">
<style type="text/css">
	.st0{fill:#242422;}
</style>
<g>
	<path class="st0" d="M362.4,424.6H235.2c-3.2,0-6.1,2.1-7.1,5.1L211,482c-1,3.1-3.9,5.2-7.1,5.2H83.8c-4.2,0-7.6-3.5-7.5-7.7
		c0-0.8,0.2-1.6,0.4-2.4L222.7,78c1.1-2.9,3.9-4.9,7.1-4.9H369c3.1,0,5.9,1.9,7,4.9l145.5,399.1c1.4,4-0.7,8.3-4.7,9.7
		c-0.7,0.3-1.5,0.4-2.3,0.4H393.7c-3.2,0-6.1-2.1-7.1-5.2l-17.1-52.3C368.5,426.7,365.6,424.6,362.4,424.6z M333.1,317.2l-27.2-83.6
		c-1.3-3.9-5.6-6-9.5-4.7c-2.2,0.7-3.9,2.5-4.7,4.7l-27.1,83.6c-1.3,3.9,0.8,8.1,4.7,9.3c0.8,0.2,1.6,0.4,2.4,0.4H326
		c4.1,0,7.5-3.4,7.4-7.6C333.4,318.6,333.3,317.9,333.1,317.2z"/>
	<path class="st0" d="M782.8,487.2c-2.8-0.1-5.3-1.6-6.6-4l-75.7-144.6H700v141.1c-0.1,4.1-3.4,7.4-7.5,7.5H577.6
		c-4.1-0.1-7.4-3.4-7.5-7.5V80.6c0.1-4.1,3.4-7.4,7.5-7.5h185.5c33.5,0,62.2,6,86,17.9c23.7,11.9,41.6,28,53.5,48.5
		s17.8,43.6,17.8,69.3c0,27.7-7.7,52.2-23.1,73.7c-13.9,19.3-33.2,33.7-57.9,43.2c-3.9,1.4-5.9,5.7-4.5,9.6c0.1,0.4,0.3,0.7,0.5,1.1
		L914.7,476c2,3.6,0.8,8.2-2.8,10.2c-1.1,0.6-2.4,1-3.7,1H782.8z M700,244.6c0,4.1,3.3,7.4,7.4,7.5h44c12.5,0,21.8-2.8,28.1-8.5
		s9.3-14.5,9.3-26.6s-3.2-19.5-9.6-25.7s-15.7-9.4-27.8-9.4h-44c-4.1,0-7.4,3.3-7.4,7.4c0,0,0,0.1,0,0.1V244.6z"/>
	<path class="st0" d="M1686.9,80.6v399.1c0,4.1-3.3,7.4-7.4,7.5h-400c-4.1-0.1-7.4-3.4-7.4-7.5v-88.6c0-4.1,3.3-7.4,7.4-7.4l0,0
		h270.1c4.1,0,7.5-3.4,7.5-7.5l0,0v-43.6c0-4.1-3.3-7.4-7.4-7.4c0,0-0.1,0-0.1,0h-61.1c-4.1-0.1-7.4-3.4-7.4-7.5V235
		c0-4.1,3.3-7.4,7.4-7.5h61.1c4.1,0.1,7.4-3.2,7.5-7.3c0,0,0-0.1,0-0.1v-36c0-4.1-3.3-7.4-7.4-7.5l-120.9-0.5h-232.2
		c-4.1,0-7.4,3.3-7.4,7.4v0v296.2c-0.1,4.1-3.4,7.4-7.5,7.5h-114.9c-4.1-0.1-7.4-3.4-7.5-7.5V183.5c0-4.1-3.3-7.4-7.4-7.4l0,0H958
		c-4.1-0.1-7.4-3.4-7.4-7.5v-88c0-4.1,3.3-7.4,7.4-7.5h721.5C1683.6,73.2,1686.9,76.5,1686.9,80.6z"/>
	<path class="st0" d="M406.6,834.3c13.9,18.1,20.8,39.1,20.8,62.9c0,36.2-12,64.2-36,83.9c-23.9,19.7-58.4,29.5-103.2,29.5H78.7
		c-4.1,0-7.4-3.3-7.4-7.4l0,0V604.1c-0.1-4.1,3.2-7.4,7.3-7.5c0,0,0.1,0,0.1,0h203.7c42.1,0,75.3,9.2,99.4,27.5
		c24.2,18.3,36.2,45,36.2,80.1c0,24.2-6.3,44.5-19,61.1c-8.2,10.9-18.8,19.7-31,25.8c-3.7,1.8-5.4,6.2-3.6,10c0.8,1.7,2.2,3,3.9,3.7
		C383.4,811.1,396.6,821.3,406.6,834.3z M201.1,750.5c-0.1,4.1,3.2,7.4,7.3,7.5c0.1,0,0.1,0,0.2,0h42.8c11.7,0,20.3-2.3,26-7
		s8.5-11.9,8.5-21.7s-2.8-17.6-8.5-22.5s-14.3-7.3-26-7.3h-42.8c-4.1,0-7.5,3.4-7.5,7.5V750.5z M286.2,899.8
		c5.6-4.5,8.5-11.8,8.5-21.9c0-19.9-11.5-29.9-34.5-29.8h-51.6c-4.1-0.1-7.4,3.2-7.5,7.3c0,0,0,0.1,0,0.1v43.6
		c0,4.1,3.3,7.4,7.4,7.4c0,0,0.1,0,0.1,0h51.6C271.9,906.5,280.5,904.3,286.2,899.8z"/>
	<path class="st0" d="M738.8,948.1H611.6c-3.2,0-6.1,2-7.1,5.1l-17.1,52.3c-1,3.1-3.9,5.2-7.1,5.1H460.2c-4.1,0-7.4-3.2-7.5-7.3
		c0-0.9,0.2-1.8,0.5-2.7l146-399.1c1.1-3,3.9-4.9,7-4.9h139.2c3.1,0,5.9,1.9,7,4.9l145.5,399.1c1.4,3.9-0.7,8.2-4.6,9.6
		c-0.8,0.3-1.6,0.4-2.4,0.4H770.1c-3.2,0-6.1-2-7.1-5.1l-17.1-52.3C744.9,950.1,742,948.1,738.8,948.1z M709.5,840.6L682.3,757
		c-2.2-6.8-12-6.8-14.2,0L641,840.6c-1.3,3.9,0.9,8.2,4.8,9.4c0.7,0.2,1.5,0.4,2.3,0.4h54.3c4.2-0.1,7.5-3.6,7.4-7.8
		C709.8,841.9,709.7,841.3,709.5,840.6z"/>
	<path class="st0" d="M1166.1,738.1c-2.4,0-4.7-1.2-6.1-3.2c-5.1-6.8-11.8-12.2-19.5-15.8c-9.3-4.5-20.6-6.7-33.9-6.7
		c-24.9,0-44.2,8.1-57.9,24.3c-13.6,16.1-20.5,38.3-20.5,66.3c0,32.4,7.6,56.6,22.9,72.5c15.3,15.9,38.6,23.9,70.1,24
		c24.1,0,44.3-7.7,60.9-23.2c3-2.8,3.2-7.6,0.4-10.6c-1.4-1.5-3.4-2.4-5.5-2.4h-79.3c-4.1-0.1-7.4-3.4-7.5-7.5v-76.9
		c0.1-4.1,3.4-7.4,7.5-7.5h196.2c4.1,0.1,7.4,3.4,7.4,7.5v120.3c0,1.4-0.3,2.7-1,3.9c-17.9,30-42.3,55.8-73.2,77.4
		c-30.9,21.6-70.9,32.6-119.9,33.1c-42.9,0-80.3-8.9-112-26.7c-31.2-17.1-56.6-43-73.1-74.5c-16.9-32-25.4-68.5-25.4-109.4
		s8.5-77.4,25.4-109.3c16.5-31.4,41.8-57.4,72.8-74.6c31.6-17.7,68.6-26.6,111.1-26.6c54.2,0,98.4,13.1,132.5,39.2
		c31.9,24.4,51.6,57,59.1,97.7c0.7,4.1-2.1,7.9-6.2,8.6c-0.4,0.1-0.8,0.1-1.2,0.1L1166.1,738.1z"/>
	<path class="st0" d="M1465,987.2c-32.2-17.9-59-44.2-77.5-76c-19.1-32.3-28.6-68.8-28.7-109.3s9.5-77,28.7-109.4
		c19.1-32.3,44.9-57.5,77.5-75.7c32.6-18.2,68.4-27.3,107.3-27.2c39,0,74.7,9.1,107,27.2c32,17.8,58.6,44,76.9,75.7
		c18.9,32.4,28.3,68.9,28.3,109.4c0,40.5-9.4,77-28.3,109.3c-18.4,31.8-45.1,58.1-77.2,76c-32.6,18.4-68.2,27.6-106.7,27.5
		C1533.8,1014.6,1498,1005.5,1465,987.2z"/>
	<path class="st0" d="M1465,987.2c-32.2-17.9-59-44.2-77.5-76c-19.1-32.3-28.6-68.8-28.7-109.3s9.5-77,28.7-109.4
		c19.1-32.3,44.9-57.5,77.5-75.7c32.6-18.2,68.4-27.3,107.3-27.2c39,0,74.7,9.1,107,27.2c32,17.8,58.6,44,76.9,75.7
		c18.9,32.4,28.3,68.9,28.3,109.4c0,40.5-9.4,77-28.3,109.3c-18.4,31.8-45.1,58.1-77.2,76c-32.6,18.4-68.2,27.6-106.7,27.5
		C1533.8,1014.6,1498,1005.5,1465,987.2z"/>
</g>
</svg>
